<svg width="80" height="80" viewBox="0 0 80 80" fill="none" xmlns="http://www.w3.org/2000/svg">
<rect width="80" height="80" fill="white"/>
<path d="M73 17L58 32H73V17Z" fill="#A67E5B"/>
<rect x="7" y="12" width="15" height="20" fill="#2D3040"/>
<rect x="7" y="34" width="15" height="17" fill="#2D3040"/>
<rect x="24" y="34" width="15" height="5" fill="#2D3040"/>
<path d="M24 44H29C34.5228 44 39 48.4772 39 54V59C39 64.5228 34.5228 69 29 69H24V44Z" fill="#2D3040"/>
<path d="M7 53H22V69H17C11.4772 69 7 64.5228 7 59V53Z" fill="#2D3040"/>
<path d="M41 44C41 38.4772 45.4772 34 51 34H56V51H41V44Z" fill="#2D3040"/>
<path d="M58 34H73V43H67C62.0294 43 58 38.9706 58 34V34Z" fill="#2D3040"/>
<path d="M58 47H63C68.5228 47 73 51.4772 73 57V59C73 64.5228 68.5228 69 63 69H58V47Z" fill="#2D3040"/>
<path d="M41 53H56V69H51C45.4772 69 41 64.5228 41 59V53Z" fill="#2D3040"/>
<path d="M24 12H29C34.5228 12 39 16.4772 39 22V32H24V12Z" fill="#2D3040"/>
<path d="M41 12H46C51.5228 12 56 16.4772 56 22V32H41V12Z" fill="#2D3040"/>
</svg>
